<?xml version="1.0" encoding="utf-8"?>
<!-- Generator: Adobe Illustrator 22.1.0, SVG Export Plug-In . SVG Version: 6.00 Build 0)  -->
<svg version="1.1" id="Layer_1" xmlns="http://www.w3.org/2000/svg" xmlns:xlink="http://www.w3.org/1999/xlink" x="0px" y="0px"
	 viewBox="0 0 1000 1000" style="enable-background:new 0 0 1000 1000;" xml:space="preserve">
<style type="text/css">
	.st0{fill:#EDAD1E;}
	.st1{fill:#3F3F3F;}
</style>
<title>icon</title>
<rect x="0.5" y="0.5" class="st0" width="999" height="999"/>
<path d="M999,1v998H1V1H999 M1000,0H0v1000h1000V0z"/>
<g>
	<path class="st1" d="M223.1,475.1H181V450c-7,9.8-15.3,17.1-24.8,21.9c-8.9,4.6-18.8,7.1-28.8,7.1c-19.7,0-36.6-7.9-50.6-23.8
		c-14-15.9-21-38-21.1-66.4c0-29,6.8-51.1,20.5-66.2s30.9-22.7,51.8-22.7c19.1,0,35.7,8,49.7,23.9v-85.2H223L223.1,475.1z
		 M102.1,385.8c0,18.3,2.5,31.5,7.6,39.7c7.3,11.8,17.6,17.8,30.6,17.8c10.4,0,19.3-4.4,26.6-13.3c7.3-8.9,11-22.1,11-39.8
		c0-19.7-3.5-33.9-10.6-42.5c-7.1-8.7-16.2-13-27.3-13c-10.8,0-19.8,4.3-27,12.8C105.8,356,102.1,368.8,102.1,385.8z"/>
	<path class="st1" d="M367,420.6l45.2,7.6c-5.8,16.5-15,29.1-27.5,37.8c-12.5,8.7-28.2,13-47,13c-29.8,0-51.9-9.7-66.1-29.2
		c-11.3-15.6-17-35.3-16.9-59c0-28.4,7.4-50.6,22.3-66.7c14.8-16.1,33.6-24.1,56.3-24.1c25.5,0,45.6,8.4,60.3,25.2
		c14.7,16.8,21.8,42.6,21.1,77.4H301c0.3,13.5,4,23.9,11,31.4c6.7,7.3,16.2,11.4,26.1,11.2c7.1,0,13.1-1.9,17.9-5.8
		C360.9,435.4,364.5,429.2,367,420.6z M369.6,374.8c-0.3-13.1-3.7-23.1-10.2-29.9c-12.4-13.1-33.1-13.7-46.2-1.3
		c-0.6,0.6-1.3,1.2-1.8,1.9c-6.5,7.2-9.6,17-9.5,29.4L369.6,374.8z"/>
	<path class="st1" d="M498.6,475.1l-69.1-171.3h47.6l32.3,87.4l9.4,29.2c2.5-7.4,4-12.3,4.7-14.7c1.5-4.8,3.1-9.7,4.8-14.5
		l32.6-87.4h46.6l-68.1,171.3H498.6z"/>
	<path class="st1" d="M66.7,757.5V521h46.5L210,679V521h44.4v236.5h-47.9l-95.3-154.2v154.2H66.7z"/>
	<path class="st1" d="M294.1,669.4c0.1-15.3,3.9-30.3,11.1-43.7c7-13.7,18-24.9,31.5-32.3c13.6-7.4,28.8-11.1,45.6-11.1
		c25.9,0,47.2,8.4,63.7,25.3s24.8,38.1,24.9,63.8c0,25.9-8.4,47.4-25.1,64.5c-16.7,17-37.8,25.6-63.2,25.6c-15.6,0-31-3.6-44.9-10.7
		c-13.9-6.7-25.2-17.6-32.5-31.2C297.8,705.8,294.1,689.1,294.1,669.4z M340.5,671.8c0,17,4,30,12.1,39c8.1,9,18,13.5,29.9,13.6
		c11.8,0,21.8-4.5,29.8-13.6c8-9,12-22.2,12-39.4c0-16.8-4-29.7-12-38.7s-17.9-13.5-29.8-13.5c-11.8,0-21.8,4.5-29.9,13.5
		S340.5,654.8,340.5,671.8L340.5,671.8z"/>
	<path class="st1" d="M584.9,586.2v36.1H554v69c0,14,0.3,22.2,0.9,24.5c0.6,2.3,2,4.4,4,5.7c2.2,1.6,4.9,2.3,7.7,2.3
		c4.2,0,10.3-1.4,18.2-4.3l3.9,35.2c-10.5,4.5-22.5,6.8-35.8,6.8c-7.6,0.1-15.1-1.3-22.1-4.1c-6.6-2.7-11.4-6.3-14.4-10.7
		c-3.1-4.4-5.2-10.2-6.4-17.6c-1-5.3-1.4-15.9-1.5-31.9v-74.7h-20.8v-36.2h20.8v-34l45.5-26.5v60.5H584.9z"/>
	<path class="st1" d="M715.6,703l45.2,7.6c-5.8,16.6-15,29.2-27.5,37.8s-28.2,13-47,13c-29.8,0-51.8-9.7-66.2-29.2
		c-11.3-15.6-16.9-35.3-16.9-59c0-28.4,7.4-50.6,22.3-66.7s33.6-24.1,56.3-24.1c25.5,0,45.6,8.4,60.3,25.3s21.8,42.6,21.1,77.4
		H649.6c0.3,13.5,4,23.9,11,31.4c6.7,7.3,16.2,11.4,26.1,11.2c7.1,0,13.1-1.9,17.9-5.8C709.5,717.9,713.2,711.6,715.6,703z
		 M718.2,657.2c-0.3-13.1-3.7-23.1-10.2-29.9c-6-6.6-14.6-10.4-23.6-10.3c-9.4-0.2-18.3,3.7-24.5,10.8c-6.5,7.2-9.6,17-9.5,29.4
		L718.2,657.2z"/>
	<path class="st1" d="M784.2,708.6l45.5-6.9c1.9,8.8,5.9,15.5,11.8,20.1c5.9,4.6,14.2,6.9,24.8,6.8c11.7,0,20.5-2.2,26.5-6.5
		c3.9-2.8,6.1-7.3,6-12.1c0.1-3.2-1.1-6.2-3.2-8.5c-2.3-2.1-7.3-4.1-15.2-6c-36.6-8.1-59.8-15.4-69.5-22.1
		c-13.5-9.2-20.3-22.1-20.3-38.5c0-14.8,5.9-27.3,17.6-37.4s29.9-15.2,54.5-15.1c23.4,0,40.9,3.8,52.3,11.5s19.3,18.9,23.6,33.9
		l-42.8,7.9c-1.8-6.7-5.3-11.8-10.4-15.3s-12.4-5.3-21.9-5.3c-11.9,0-20.5,1.7-25.7,5c-3.5,2.4-5.2,5.4-5.2,9.2c0,3.2,1.5,6,4.5,8.2
		c4.1,3,18.2,7.3,42.3,12.7c24.1,5.5,41,12.2,50.5,20.2c9.5,8.1,14.2,19.3,14.2,33.7c0,15.7-6.6,29.2-19.7,40.5
		s-32.5,16.9-58.2,16.9c-23.3,0-41.8-4.7-55.4-14.2C797.5,738.1,788,724.3,784.2,708.6z"/>
</g>
</svg>
