<?xml version="1.0" standalone="no"?>
<!DOCTYPE svg PUBLIC "-//W3C//DTD SVG 20010904//EN"
 "http://www.w3.org/TR/2001/REC-SVG-20010904/DTD/svg10.dtd">
<svg version="1.0" xmlns="http://www.w3.org/2000/svg"
 width="1000.000000pt" height="1000.000000pt" viewBox="0 0 1000.000000 1000.000000"
 preserveAspectRatio="xMidYMid meet">
<metadata>
Created by potrace 1.11, written by Peter Selinger 2001-2013
</metadata>
<g transform="translate(0.000000,1000.000000) scale(0.100000,-0.100000)"
fill="#000000" stroke="none">
<path d="M0 5000 l0 -5000 5000 0 5000 0 0 5000 0 5000 -5000 0 -5000 0 0
-5000z m2230 1435 l0 -1185 -210 0 -210 0 0 118 0 119 -87 -86 c-136 -133
-273 -191 -453 -191 -175 0 -312 56 -446 182 -165 157 -241 332 -263 609 -10
127 0 313 23 411 41 176 99 283 210 393 136 135 284 195 479 195 182 0 312
-52 455 -184 l42 -39 0 415 c0 228 3 418 7 421 3 4 107 7 230 7 l223 0 0
-1185z m1282 551 c171 -34 269 -86 389 -205 64 -65 95 -106 126 -166 81 -159
123 -352 123 -567 l0 -78 -571 0 -570 0 6 -47 c8 -61 33 -150 52 -186 8 -15
31 -47 51 -69 116 -128 306 -156 434 -63 42 31 88 103 111 176 5 14 29 12 226
-21 122 -20 224 -40 227 -43 9 -9 -21 -82 -67 -159 -109 -185 -283 -300 -513
-339 -91 -15 -330 -6 -416 16 -36 9 -108 37 -160 62 -234 112 -381 357 -410
684 -40 455 142 822 476 962 129 55 333 72 486 43z m1426 -469 c90 -243 183
-503 207 -577 24 -74 46 -128 49 -120 3 8 23 71 45 139 22 69 114 322 203 563
l163 438 234 0 c217 0 233 -1 229 -17 -3 -10 -155 -395 -338 -855 l-333 -838
-207 0 -207 0 -342 848 c-188 466 -341 850 -341 855 0 4 107 7 238 7 l237 0
163 -443z m-3323 -2510 l480 -784 3 784 2 783 225 0 225 0 -2 -1182 -3 -1183
-240 -3 -240 -2 -462 747 c-254 412 -469 757 -477 768 -14 18 -15 -59 -16
-748 l0 -767 -222 2 -223 3 -3 1183 -2 1182 238 0 237 0 480 -783z m3925 433
l0 -300 155 0 155 0 0 -185 0 -185 -156 0 -155 0 3 -463 c3 -421 5 -465 20
-490 10 -14 28 -32 40 -39 32 -17 113 -13 186 10 34 11 62 17 62 13 0 -10 29
-261 35 -307 6 -40 5 -42 -32 -57 -139 -55 -373 -69 -499 -29 -141 44 -216
123 -250 266 -15 61 -18 143 -22 583 l-4 512 -102 3 -101 3 0 180 0 180 103 3
102 3 0 168 0 168 223 131 c122 72 225 131 230 131 4 1 7 -134 7 -299z m-1573
-271 c43 -6 119 -24 168 -40 265 -88 469 -309 547 -594 18 -67 21 -107 22
-250 0 -203 -15 -272 -95 -435 -46 -93 -64 -116 -153 -206 -116 -116 -197
-168 -332 -213 -244 -82 -514 -58 -754 65 -206 105 -332 268 -397 511 -24 88
-26 116 -27 278 0 168 2 186 28 269 79 259 229 439 450 541 68 32 191 67 271
78 62 8 196 7 272 -4z m3086 -18 c128 -33 229 -92 328 -190 52 -52 100 -112
122 -151 80 -144 127 -349 127 -552 l0 -108 -565 0 -565 0 0 -29 c0 -108 55
-237 131 -305 67 -60 138 -86 238 -86 67 0 87 4 132 28 61 32 108 88 135 159
10 26 19 50 20 51 1 2 104 -13 228 -34 261 -43 242 -23 168 -169 -84 -164
-233 -288 -414 -344 -150 -45 -378 -48 -543 -6 -91 23 -233 97 -298 155 -162
145 -252 362 -264 636 -10 218 21 393 98 550 109 222 316 375 564 415 81 13
271 2 358 -20z m1747 19 c191 -20 316 -69 415 -162 75 -69 119 -135 151 -223
l23 -64 -52 -10 c-29 -6 -115 -22 -192 -36 -77 -14 -150 -27 -161 -30 -18 -4
-26 5 -49 51 -27 54 -80 104 -133 125 -95 37 -312 30 -400 -12 -75 -37 -95
-114 -42 -167 37 -37 123 -67 372 -127 362 -87 497 -144 596 -250 80 -85 104
-147 110 -282 3 -84 1 -114 -17 -171 -39 -128 -153 -263 -279 -330 -176 -94
-477 -125 -737 -76 -175 34 -328 118 -426 237 -49 58 -121 191 -134 248 l-6
25 213 32 c117 18 220 32 230 32 10 0 22 -16 31 -45 37 -106 122 -184 225
-206 33 -6 103 -9 167 -7 127 5 196 29 244 83 55 63 46 154 -19 194 -17 10
-134 44 -258 74 -489 120 -637 196 -721 369 -139 285 33 616 366 702 131 34
312 44 483 26z"/>
<path d="M1315 6641 c-134 -35 -232 -146 -272 -307 -22 -91 -22 -328 1 -434
31 -145 104 -247 214 -298 48 -23 71 -27 142 -27 73 0 93 4 141 28 66 32 137
104 173 176 45 88 59 170 59 336 -1 216 -35 333 -125 431 -59 64 -133 97 -227
100 -42 2 -89 0 -106 -5z"/>
<path d="M3265 6636 c-22 -7 -54 -20 -71 -29 -36 -19 -106 -93 -129 -137 -18
-35 -45 -149 -45 -192 l0 -28 335 0 335 0 0 43 c0 59 -23 138 -58 200 -69 123
-231 186 -367 143z"/>
<path d="M3758 3800 c-75 -13 -154 -55 -211 -112 -104 -104 -142 -230 -134
-443 9 -232 83 -367 247 -448 60 -30 72 -32 165 -32 93 0 105 2 166 32 80 39
160 121 195 197 32 71 54 188 54 292 0 283 -133 478 -351 514 -35 5 -68 9 -74
9 -5 -1 -31 -5 -57 -9z"/>
<path d="M6767 3820 c-82 -21 -144 -65 -191 -134 -41 -60 -66 -140 -66 -208
l0 -48 335 0 335 0 0 23 c-1 49 -31 161 -57 208 -66 123 -223 192 -356 159z"/>
</g>
</svg>
