<?xml version="1.0" standalone="no"?>
<!DOCTYPE svg PUBLIC "-//W3C//DTD SVG 20010904//EN"
 "http://www.w3.org/TR/2001/REC-SVG-20010904/DTD/svg10.dtd">
<svg version="1.0" xmlns="http://www.w3.org/2000/svg"
 width="1000.000000pt" height="1000.000000pt" viewBox="0 0 1000.000000 1000.000000"
 preserveAspectRatio="xMidYMid meet">
<metadata>
Created by potrace 1.11, written by Peter Selinger 2001-2013
</metadata>
<g transform="translate(0.000000,1000.000000) scale(0.100000,-0.100000)"
fill="#000000" stroke="none">
<path d="M0 5000 l0 -5000 5000 0 5000 0 0 5000 0 5000 -5000 0 -5000 0 0
-5000z m9990 0 l0 -4990 -4990 0 -4990 0 0 4990 0 4990 4990 0 4990 0 0 -4990z"/>
<path d="M1780 7190 l0 -421 -68 59 c-81 69 -153 112 -242 143 -86 30 -281 32
-379 5 -238 -65 -411 -244 -485 -499 -52 -179 -59 -470 -17 -659 89 -395 412
-649 760 -600 159 23 265 76 384 194 l77 77 0 -119 0 -120 210 0 210 0 0 1180
0 1180 -225 0 -225 0 0 -420z m-255 -557 c72 -23 174 -127 204 -208 33 -87 50
-195 51 -318 0 -197 -46 -342 -140 -436 -69 -70 -127 -95 -225 -99 -111 -5
-180 21 -255 97 -106 106 -134 202 -135 451 0 233 24 317 123 422 100 107 230
139 377 91z"/>
<path d="M3205 6991 c-311 -50 -535 -261 -622 -588 -24 -90 -27 -114 -27 -303
-1 -183 2 -214 22 -295 29 -111 96 -251 157 -327 147 -186 410 -284 708 -264
304 21 508 151 634 404 25 51 44 94 42 96 -6 5 -441 77 -444 74 -2 -2 -14 -28
-28 -59 -53 -119 -125 -170 -252 -177 -66 -3 -91 0 -140 19 -121 45 -213 167
-238 313 -18 106 -76 96 563 96 l560 0 0 103 c0 347 -117 624 -325 772 -80 58
-170 98 -265 120 -86 19 -271 28 -345 16z m291 -372 c106 -50 172 -146 193
-279 6 -36 11 -71 11 -77 0 -10 -75 -13 -340 -13 l-340 0 0 49 c0 119 72 252
166 307 101 60 205 64 310 13z"/>
<path d="M4302 6951 c1 -5 156 -390 343 -855 l340 -846 205 0 205 0 332 838
c183 460 335 845 339 855 6 16 -7 17 -226 15 l-233 -3 -158 -425 c-88 -234
-179 -488 -204 -565 -25 -77 -48 -147 -51 -155 -3 -8 -39 84 -79 205 -41 121
-135 382 -208 580 l-134 360 -237 3 c-148 1 -237 -1 -234 -7z"/>
<path d="M670 3610 l0 -1180 220 0 220 0 2 766 3 767 474 -767 473 -766 239 0
239 0 0 1180 0 1180 -220 0 -220 0 -2 -787 -3 -786 -480 784 -481 784 -232 3
-232 2 0 -1180z"/>
<path d="M5315 4611 l-220 -128 -3 -172 -2 -171 -105 0 -105 0 0 -180 0 -179
103 -3 102 -3 6 -535 c4 -366 9 -549 18 -578 39 -145 130 -227 289 -261 104
-22 285 -11 407 25 85 24 81 10 60 204 -18 165 -19 171 -39 165 -157 -45 -202
-44 -250 4 l-31 31 -3 475 -3 475 156 0 155 0 0 180 0 180 -155 0 -155 0 -2
300 -3 300 -220 -129z"/>
<path d="M3615 4155 c-198 -44 -381 -153 -482 -288 -134 -177 -205 -417 -189
-637 30 -393 180 -624 493 -763 127 -56 203 -70 388 -71 183 -1 250 11 379 68
237 105 423 339 482 608 20 90 22 317 5 407 -68 350 -324 609 -669 677 -92 17
-324 17 -407 -1z m357 -374 c67 -26 156 -103 193 -166 52 -88 67 -151 72 -300
8 -214 -29 -335 -134 -442 -153 -157 -400 -158 -556 -1 -99 98 -141 224 -140
413 0 183 38 298 130 396 55 59 96 86 171 110 74 25 185 20 264 -10z"/>
<path d="M6634 4155 c-175 -38 -347 -157 -449 -310 -102 -154 -147 -331 -147
-575 0 -179 20 -298 72 -422 134 -322 399 -472 804 -455 254 11 440 98 567
265 54 71 123 204 117 224 -5 13 -429 90 -439 80 -4 -4 -14 -28 -24 -55 -24
-63 -84 -130 -143 -158 -72 -36 -185 -33 -270 5 -82 38 -160 121 -190 202 -22
59 -43 179 -34 189 3 3 259 5 569 5 l563 0 0 84 c0 119 -26 301 -56 398 -89
283 -284 466 -556 522 -94 19 -298 20 -384 1z m317 -342 c41 -13 69 -32 115
-78 69 -69 101 -138 111 -242 l6 -63 -342 0 -341 0 0 23 c1 44 29 156 50 198
32 62 111 134 172 158 66 25 158 27 229 4z"/>
<path d="M8379 4155 c-150 -28 -266 -89 -351 -184 -89 -99 -124 -206 -116
-358 5 -82 10 -103 42 -167 44 -90 126 -171 218 -214 116 -54 330 -118 633
-187 141 -32 194 -80 182 -166 -11 -85 -91 -140 -235 -161 -221 -32 -393 53
-443 221 l-12 42 -46 -7 c-25 -4 -125 -19 -221 -34 l-175 -26 1 -32 c3 -63 73
-182 159 -268 168 -170 377 -234 714 -221 224 9 365 51 496 149 245 182 290
548 90 737 -98 92 -242 151 -570 231 -210 51 -332 89 -373 116 -30 19 -53 73
-45 105 9 37 51 76 102 95 72 26 257 31 337 9 77 -21 141 -73 169 -137 10 -24
20 -45 22 -47 1 -2 97 14 213 35 l211 38 -6 25 c-3 14 -23 60 -43 101 -74 150
-210 253 -392 296 -102 24 -451 30 -561 9z"/>
</g>
</svg>
